<svg id="Grupo_1997" data-name="Grupo 1997" xmlns="http://www.w3.org/2000/svg" xmlns:xlink="http://www.w3.org/1999/xlink" width="236.579" height="59.05" viewBox="0 0 236.579 59.05">
  <defs>
    <clipPath id="clip-path">
      <rect id="Rectángulo_5" data-name="Rectángulo 5" width="236.579" height="59.05" fill="none" stroke="rgba(0,0,0,0)" stroke-width="1"/>
    </clipPath>
  </defs>
  <g id="Grupo_8" data-name="Grupo 8" clip-path="url(#clip-path)">
    <path id="Trazado_18" data-name="Trazado 18" d="M304.1,86.781a2.734,2.734,0,0,1-.921,4.144,6.267,6.267,0,0,1-3.4.947,9.913,9.913,0,0,1-5.346-1.356q-2.175-1.355-2.174-5.756V70.641h-2.353a2.8,2.8,0,0,1-2.865-2.865,2.632,2.632,0,0,1,.819-1.97,2.825,2.825,0,0,1,2.046-.793h2.353V61.739a3.059,3.059,0,0,1,3.12-3.121,2.88,2.88,0,0,1,2.149.9,3.07,3.07,0,0,1,.87,2.225v3.274h3.632a2.8,2.8,0,0,1,2.865,2.865,2.632,2.632,0,0,1-.819,1.969,2.822,2.822,0,0,1-2.046.793H298.4V84.5a1.956,1.956,0,0,0,.563,1.56,2.266,2.266,0,0,0,1.535.486,4.388,4.388,0,0,0,1.126-.2,3.058,3.058,0,0,1,1.177-.256,1.7,1.7,0,0,1,1.3.691" transform="translate(-213.862 -43.674)" fill="#fff" stroke="rgba(0,0,0,0)" stroke-width="1"/>
    <path id="Trazado_19" data-name="Trazado 19" d="M401.657,82.59a3.07,3.07,0,0,1,.87,2.225V97.81q0,5.525-3.044,8.646t-8.672,3.121q-5.628,0-8.646-3.121t-3.018-8.646V84.816a3.068,3.068,0,0,1,.87-2.225,3.15,3.15,0,0,1,4.4,0,3.069,3.069,0,0,1,.87,2.225V97.81a6.677,6.677,0,0,0,1.381,4.63,5.343,5.343,0,0,0,4.144,1.509,5.413,5.413,0,0,0,4.2-1.509,6.676,6.676,0,0,0,1.381-4.63V84.816a3.067,3.067,0,0,1,.87-2.225,3.15,3.15,0,0,1,4.4,0" transform="translate(-282.486 -60.867)" fill="#fff" stroke="rgba(0,0,0,0)" stroke-width="1"/>
    <path id="Trazado_20" data-name="Trazado 20" d="M516.805,41.428a3.048,3.048,0,0,1,.87,2.251V75.3a3.068,3.068,0,0,1-.87,2.225,2.937,2.937,0,0,1-2.2.9,2.893,2.893,0,0,1-2.174-.87,3.213,3.213,0,0,1-.9-2.2,11.091,11.091,0,0,1-8.032,3.581,11.694,11.694,0,0,1-6.395-1.816,12.725,12.725,0,0,1-4.528-5.039,15.722,15.722,0,0,1-1.662-7.316,16.082,16.082,0,0,1,1.637-7.341,12.577,12.577,0,0,1,4.476-5.065,11.4,11.4,0,0,1,6.267-1.816,11.853,11.853,0,0,1,4.6.9,12.1,12.1,0,0,1,3.633,2.276V43.679a3.066,3.066,0,0,1,.87-2.225,2.937,2.937,0,0,1,2.2-.9,2.984,2.984,0,0,1,2.2.87M509.694,70.87a9.024,9.024,0,0,0,2.1-6.114,9.123,9.123,0,0,0-2.1-6.139,7.16,7.16,0,0,0-10.794,0,10.044,10.044,0,0,0-.026,12.253,6.756,6.756,0,0,0,5.4,2.43,6.832,6.832,0,0,0,5.423-2.43" transform="translate(-365.763 -30.218)" fill="#fff" stroke="rgba(0,0,0,0)" stroke-width="1"/>
    <path id="Trazado_21" data-name="Trazado 21" d="M641.82,80.559a3.049,3.049,0,0,1,.87,2.251v21.64a3.068,3.068,0,0,1-.87,2.225,2.938,2.938,0,0,1-2.2.9,2.893,2.893,0,0,1-2.174-.87,3.213,3.213,0,0,1-.9-2.2,11.092,11.092,0,0,1-8.032,3.581,11.7,11.7,0,0,1-6.4-1.816,12.723,12.723,0,0,1-4.527-5.039,15.718,15.718,0,0,1-1.663-7.316,16.08,16.08,0,0,1,1.637-7.341,12.577,12.577,0,0,1,4.476-5.065,11.4,11.4,0,0,1,6.267-1.816,11.854,11.854,0,0,1,4.6.9,12.1,12.1,0,0,1,3.632,2.276V82.81a3.066,3.066,0,0,1,.87-2.225,2.936,2.936,0,0,1,2.2-.9,2.984,2.984,0,0,1,2.2.87m-7.111,19.466a9.023,9.023,0,0,0,2.1-6.114,9.123,9.123,0,0,0-2.1-6.139,7.16,7.16,0,0,0-10.795,0,10.044,10.044,0,0,0-.026,12.253,6.755,6.755,0,0,0,5.4,2.43,6.832,6.832,0,0,0,5.423-2.43" transform="translate(-458.906 -59.373)" fill="#fff" stroke="rgba(0,0,0,0)" stroke-width="1"/>
    <path id="Trazado_22" data-name="Trazado 22" d="M754,86.781a2.734,2.734,0,0,1-.921,4.144,6.267,6.267,0,0,1-3.4.947,9.913,9.913,0,0,1-5.346-1.356q-2.175-1.355-2.175-5.756V70.641H739.8a2.8,2.8,0,0,1-2.865-2.865,2.632,2.632,0,0,1,.818-1.97,2.826,2.826,0,0,1,2.047-.793h2.353V61.739a3.059,3.059,0,0,1,3.121-3.121,2.88,2.88,0,0,1,2.149.9,3.07,3.07,0,0,1,.87,2.225v3.274h3.632a2.8,2.8,0,0,1,2.865,2.865,2.632,2.632,0,0,1-.819,1.969,2.822,2.822,0,0,1-2.046.793h-3.632V84.5a1.956,1.956,0,0,0,.563,1.56,2.265,2.265,0,0,0,1.535.486,4.383,4.383,0,0,0,1.125-.2,3.06,3.06,0,0,1,1.177-.256,1.7,1.7,0,0,1,1.3.691" transform="translate(-549.058 -43.674)" fill="#fff" stroke="rgba(0,0,0,0)" stroke-width="1"/>
    <path id="Trazado_23" data-name="Trazado 23" d="M848.906,80.559a3.048,3.048,0,0,1,.87,2.251v21.64a3.067,3.067,0,0,1-.87,2.225,2.937,2.937,0,0,1-2.2.9,2.893,2.893,0,0,1-2.174-.87,3.211,3.211,0,0,1-.9-2.2,11.091,11.091,0,0,1-8.032,3.581,11.694,11.694,0,0,1-6.395-1.816,12.727,12.727,0,0,1-4.528-5.039,15.721,15.721,0,0,1-1.662-7.316,16.085,16.085,0,0,1,1.637-7.341,12.576,12.576,0,0,1,4.476-5.065,11.4,11.4,0,0,1,6.267-1.816,11.855,11.855,0,0,1,4.6.9,12.1,12.1,0,0,1,3.632,2.276V82.81a3.065,3.065,0,0,1,.87-2.225,2.936,2.936,0,0,1,2.2-.9,2.984,2.984,0,0,1,2.2.87M841.8,100.025a9.024,9.024,0,0,0,2.1-6.114,9.124,9.124,0,0,0-2.1-6.139,7.16,7.16,0,0,0-10.794,0,10.044,10.044,0,0,0-.026,12.253,6.756,6.756,0,0,0,5.4,2.43,6.832,6.832,0,0,0,5.423-2.43" transform="translate(-613.197 -59.373)" fill="#fff" stroke="rgba(0,0,0,0)" stroke-width="1"/>
    <path id="Trazado_24" data-name="Trazado 24" d="M224.763,107.143c-2.062-3.426-1.83-8.882.125-10.774a30.717,30.717,0,0,1-.125,10.774" transform="translate(-166.383 -71.8)" fill="#fff" stroke="rgba(0,0,0,0)" stroke-width="1"/>
    <path id="Trazado_25" data-name="Trazado 25" d="M189.072,38.143c-1,1.086-2.106,2.065-3.189,3.07a1.087,1.087,0,0,1-.477.168,1.065,1.065,0,0,1-1.068-.518,1.254,1.254,0,0,1,.082-1.435,17.977,17.977,0,0,1,2.86-2.863c.543-.441.956-.087,1.29.326.291.365.984.727.5,1.252" transform="translate(-137.204 -27.092)" fill="#fff" stroke="rgba(0,0,0,0)" stroke-width="1"/>
    <path id="Trazado_26" data-name="Trazado 26" d="M204.915,80.738a14.2,14.2,0,0,0,.344,7.411,35.529,35.529,0,0,0,1.509,4.586c.88,1.881.176,3.319-1.03,5.122-1.288-5.214-3.855-9.731-3.577-14.96a15.167,15.167,0,0,1,3.727-9.392c.362-.418.66-1.264,1.466-.834a2.076,2.076,0,0,1,.273,2.521,13.028,13.028,0,0,0-2.713,5.545" transform="translate(-150.607 -54.056)" fill="#fff" stroke="rgba(0,0,0,0)" stroke-width="1"/>
    <path id="Trazado_27" data-name="Trazado 27" d="M188.531,54.854a5.036,5.036,0,0,1-.714.724,20.116,20.116,0,0,0-5.9,13.051,10.825,10.825,0,0,0,.523,3.513c1.068,4.286,2.6,8.434,3.929,12.638a2.779,2.779,0,0,1-.8,3.082c-.492.507-.775.421-.966-.217q-.4-1.342-.79-2.685c-1.3-4.482-3.08-8.818-4.018-13.407-.178-.869-.283-1.757-.39-2.435.492-6.379,2.718-11.73,7.378-15.939.308-.278.683-.892,1.135-.316.433.548,1.178,1.117.607,1.991" transform="translate(-133.672 -39.208)" fill="#fff" stroke="rgba(0,0,0,0)" stroke-width="1"/>
    <path id="Trazado_28" data-name="Trazado 28" d="M165.436,105.615c-.569.377-.925.367-1.094-.367-1.525-6.577-4.306-12.79-5.644-19.422-.219-1.078-.319-2.18-.436-3a29.772,29.772,0,0,1,2.509-10.868c.339-.742.818-1.407,1.751-.984.908.413.783,1.208.469,1.971a31.229,31.229,0,0,0-2.08,7.587,18.048,18.048,0,0,0,.747,7.281c1.374,5.168,3.319,10.165,4.706,15.33a1.985,1.985,0,0,1-.928,2.473" transform="translate(-117.914 -52.781)" fill="#fff" stroke="rgba(0,0,0,0)" stroke-width="1"/>
    <path id="Trazado_29" data-name="Trazado 29" d="M103.3,6.813a1.488,1.488,0,0,0-2.532-.245,32.158,32.158,0,0,0-8.12,12.051c-.469,1.226-.826,2.5-1.254,3.743-.092.273-.066.8-.614.52a4.223,4.223,0,0,1-1.446-3.712A35.92,35.92,0,0,1,97.956,5.2c.357-.362,1.107-.648.8-1.282-.252-.528-.946-.693-1.517-.852-.661-.184-.995.377-1.364.757a38.258,38.258,0,0,0-8.76,14.2c-.416,1.185-.757,1.249-2.437.734-1.155-.354-.523-1.091-.334-1.632A41.511,41.511,0,0,1,92.6,3.035c.339-.38,1.048-.727.76-1.323-.24-.495-.966-.421-1.489-.571-.785-.224-1.165.337-1.578.813a39.184,39.184,0,0,0-8.4,15c-.663,2.328-2.475,2.978-3.993,4.306a2.813,2.813,0,0,1,.156-1.879,47.589,47.589,0,0,1,8.3-17.216c.37-.489,1.2-.862.849-1.652-.194-.439-2.381-.163-2.858.314a6.852,6.852,0,0,0-.64.793,45.589,45.589,0,0,0-5.267,9.147c-3.86,9.094-5.41,18.445-3.179,28.24,1.494,6.557,4.122,12.773,5.7,19.3a1.265,1.265,0,0,0,.148.352c.464.739,1.2.569,1.836.446.734-.138.548-.734.421-1.231-.316-1.234-.617-2.473-.974-3.694-1.474-5.012-3.375-9.892-4.548-14.993A34.606,34.606,0,0,1,76.7,30.257a22.081,22.081,0,0,0,1.864,2.017,2.006,2.006,0,0,1,.813,2.1c-.186,1.043-.247,2.108-.337,3.164-.074.854.189,1.532,1.127,1.716a1.13,1.13,0,0,1,.926.925c1.591,5.95,3.956,11.669,5.269,17.7.191.88.49,1.4,1.522,1.193,1.081-.217,1.053-.867.869-1.716-.716-3.284-1.741-6.478-2.766-9.673q-1.132-3.514-2.2-7.054c-.125-.413-.385-.91.206-1.236a2.006,2.006,0,0,1,2.761,1.094c1.639,5.491,3.7,10.855,4.9,16.477.153.714.357,1.344,1.328,1.091.857-.222,1.316-.566,1.084-1.606-.556-2.491-1.3-4.925-2.006-7.37-1.387-4.757-3.434-9.333-3.816-14.371a2.436,2.436,0,0,1,.91-2.552c.3-.212.5-.729.905-.6s.311.655.37,1.01c1.338,7.911,4.785,15.23,6.458,23.047.13.612.469.693,1.035.5,1.15-.39,1.395-1.066,1.109-2.249-1.415-5.828-3.547-11.437-5.211-17.188A25.216,25.216,0,0,1,94.071,22a30.609,30.609,0,0,1,8.742-13.979c.334-.3.982-.525.485-1.206M88.044,31.359a2.577,2.577,0,0,0-1.129,3.024,15.867,15.867,0,0,1,.3,2.394c.079.742-.25,1.119-1.01,1.112-.849-.01-1.7,0-2.547,0-.763,0-1.527-.005-2.29.005s-1.066-.344-.959-1.114c.148-1.048.2-2.111.377-3.156a1.81,1.81,0,0,0-.829-1.927,6.455,6.455,0,1,1,9.1-8.943,6.315,6.315,0,0,1-1.012,8.609" transform="translate(-55.304 -0.22)" fill="#fff" stroke="rgba(0,0,0,0)" stroke-width="1"/>
    <path id="Trazado_30" data-name="Trazado 30" d="M5.465,164.862c-.721.2-1.785.423-2.091-.6-1.3-4.362-3.5-8.49-3.368-13.229.084-2.922.015-5.846.015-8.77,1.007,7.309,3.322,14.256,5.6,21.214.153.461.66,1.165-.155,1.389" transform="translate(0 -105.991)" fill="#fff" stroke="rgba(0,0,0,0)" stroke-width="1"/>
    <path id="Trazado_31" data-name="Trazado 31" d="M42.363,168.19a1.226,1.226,0,0,1-1.484-.905c-1.848-6.126-4.153-12.12-5.356-18.435a6.439,6.439,0,0,1-.138-.877,1.112,1.112,0,0,1,.925-1.313,1.162,1.162,0,0,1,1.423.951,2.156,2.156,0,0,1,.056.247c1.147,5.978,3.248,11.679,5.043,17.469.163.525.3,1.061.474,1.583.306.915.1,1.42-.943,1.28" transform="translate(-26.362 -109.25)" fill="#fff" stroke="rgba(0,0,0,0)" stroke-width="1"/>
    <path id="Trazado_32" data-name="Trazado 32" d="M60.7,7.834a51.218,51.218,0,0,0-5.18,23.279,55.4,55.4,0,0,0,2.922,14.95c1.167,3.814,2.373,7.62,3.534,11.439.14.464.589,1.193-.24,1.379-.77.176-1.777.405-2.106-.78-2.052-7.353-5.01-14.455-6.134-22.065a39.538,39.538,0,0,1-.459-6.353A54.94,54.94,0,0,1,61.6,1.144,2.489,2.489,0,0,1,64.474.135c.857.321.193.765-.005,1.063A51.1,51.1,0,0,0,60.7,7.834" transform="translate(-39.51 0)" fill="#fff" stroke="rgba(0,0,0,0)" stroke-width="1"/>
    <path id="Trazado_33" data-name="Trazado 33" d="M42.418,1.416a53.407,53.407,0,0,0-3.082,6,55.7,55.7,0,0,0-4.9,23.118c.018.971.163,2.2-1.193,2.272-1.494.079-1.167-1.257-1.246-2.167-.059-.676-.013-1.359-.013-2.037a60.952,60.952,0,0,1,7.475-27A2.186,2.186,0,0,1,41.806.291c.857.071,1.055.37.612,1.124" transform="translate(-23.816 -0.208)" fill="#fff" stroke="rgba(0,0,0,0)" stroke-width="1"/>
    <path id="Trazado_34" data-name="Trazado 34" d="M18.907,68.439A1.606,1.606,0,0,1,16.689,67.4c-1.229-3.975-2.608-7.9-3.72-11.911a66.992,66.992,0,0,1-2.417-15.944c-.023-.716.074-1.438.115-2.159a64.9,64.9,0,0,1,5.17-22.97,5.878,5.878,0,0,1,.584-1.124,1.069,1.069,0,0,1,1.348-.408,1.048,1.048,0,0,1,.714,1.214,6.673,6.673,0,0,1-.461,1.446,62.183,62.183,0,0,0-4.992,23.136,59.383,59.383,0,0,0,3.062,18.771c.982,3.161,2.017,6.3,2.99,9.469.15.489.7,1.145-.176,1.517" transform="translate(-7.86 -9.532)" fill="#fff" stroke="rgba(0,0,0,0)" stroke-width="1"/>
    <path id="Trazado_35" data-name="Trazado 35" d="M6.269,1.706A74.705,74.705,0,0,0,.151,23.09c0-3.819-.028-7.638.023-11.455a8.354,8.354,0,0,1,.5-2.223A66.081,66.081,0,0,1,3.485,1.9,5.568,5.568,0,0,1,4.125.658,1.808,1.808,0,0,1,6.447.283c.691.342.025.982-.178,1.423" transform="translate(-0.106 -0.021)" fill="#fff" stroke="rgba(0,0,0,0)" stroke-width="1"/>
  </g>
</svg>
